<svg width="32" height="31" viewBox="0 0 32 31" fill="none" xmlns="http://www.w3.org/2000/svg">
<path fill-rule="evenodd" clip-rule="evenodd" d="M8.34633 10.3334C6.13862 10.3334 4.33301 12.139 4.33301 14.3467V18.4477C5.05655 18.1594 5.84415 18 6.66634 18C10.1653 18 12.9997 20.8344 12.9997 24.3334C12.9997 25.4102 12.7261 26.4383 12.2355 27.3334H23.653C25.8607 27.3334 27.6663 25.5277 27.6663 23.32V22.7334H26.133C24.2536 22.7334 22.4294 21.3591 22.257 19.329C22.1493 18.1794 22.587 17.1054 23.3454 16.36C24.0276 15.6642 24.9628 15.2667 25.973 15.2667H27.6663V14.3467C27.6663 12.139 25.8607 10.3334 23.653 10.3334H8.34633ZM2.33301 14.3467C2.33301 11.0344 5.03404 8.33337 8.34633 8.33337H23.653C26.9653 8.33337 29.6663 11.0344 29.6663 14.3467V16.2667C29.6663 16.819 29.2186 17.2667 28.6663 17.2667H25.973C25.4943 17.2667 25.0732 17.4523 24.7695 17.7643L24.7515 17.7823C24.3968 18.1286 24.1986 18.6216 24.2485 19.1452L24.2496 19.157L24.2496 19.157C24.3201 20.0036 25.1342 20.7334 26.133 20.7334H28.6663C29.2186 20.7334 29.6663 21.1811 29.6663 21.7334V23.32C29.6663 26.6323 26.9653 29.3334 23.653 29.3334H10.173C9.75257 29.3334 9.37704 29.0704 9.23328 28.6753C9.08953 28.2802 9.20826 27.8374 9.5304 27.5672C9.85433 27.2955 10.1399 26.9579 10.3626 26.5762L10.3752 26.5551C10.7723 25.9111 10.9997 25.1459 10.9997 24.3334C10.9997 21.939 9.06072 20 6.66634 20C5.65096 20 4.70843 20.3558 3.95632 20.9554C3.65597 21.1948 3.24505 21.241 2.89902 21.0743C2.55299 20.9076 2.33301 20.5575 2.33301 20.1734V14.3467Z" fill="#A4A4A4"/>
<path fill-rule="evenodd" clip-rule="evenodd" d="M18.7997 4.26675C18.7997 3.19006 17.7236 2.45088 16.7274 2.82847L6.14023 6.82867C5.05121 7.24094 4.33301 8.28069 4.33301 9.45344V15.5467C4.33301 16.099 3.88529 16.5467 3.33301 16.5467C2.78072 16.5467 2.33301 16.099 2.33301 15.5467V9.45344C2.33301 7.45302 3.56172 5.66594 5.43244 4.9581L16.0186 0.958298C18.3291 0.082551 20.7997 1.79678 20.7997 4.26675V9.33341C20.7997 9.88569 20.352 10.3334 19.7997 10.3334C19.2474 10.3334 18.7997 9.88569 18.7997 9.33341V4.26675Z" fill="#A4A4A4"/>
<path fill-rule="evenodd" clip-rule="evenodd" d="M25.9714 17.267C25.4927 17.267 25.0716 17.4526 24.7679 17.7646L24.7499 17.7825C24.3952 18.1288 24.197 18.6218 24.2469 19.1455L24.248 19.1572L24.248 19.1572C24.3185 20.0039 25.1326 20.7336 26.1314 20.7336H28.7218C28.9373 20.7197 29.0781 20.5512 29.0781 20.3737V17.6269C29.0781 17.4494 28.9373 17.2809 28.7218 17.267H25.9714ZM23.3438 16.3602C24.026 15.6645 24.9612 15.267 25.9714 15.267H28.7447C28.7566 15.267 28.7685 15.2672 28.7804 15.2676C30.0511 15.313 31.0781 16.3412 31.0781 17.6269V20.3737C31.0781 21.6594 30.0511 22.6876 28.7804 22.733C28.7685 22.7334 28.7566 22.7336 28.7447 22.7336H26.1314C24.252 22.7336 22.4278 21.3593 22.2554 19.3292C22.1477 18.1796 22.5854 17.1057 23.3438 16.3602Z" fill="#A4A4A4"/>
<path fill-rule="evenodd" clip-rule="evenodd" d="M8.33301 15.0001C8.33301 14.4478 8.78072 14.0001 9.33301 14.0001H18.6663C19.2186 14.0001 19.6663 14.4478 19.6663 15.0001C19.6663 15.5523 19.2186 16.0001 18.6663 16.0001H9.33301C8.78072 16.0001 8.33301 15.5523 8.33301 15.0001Z" fill="#A4A4A4"/>
<path fill-rule="evenodd" clip-rule="evenodd" d="M6.66634 20.0001C5.65096 20.0001 4.70843 20.3559 3.95632 20.9554L3.95458 20.9568L3.95458 20.9568C2.96101 21.7451 2.33301 22.9661 2.33301 24.3334C2.33301 25.1459 2.56036 25.9111 2.95751 26.5552L2.9659 26.5688L2.96579 26.5688C3.7122 27.8237 5.08517 28.6667 6.66634 28.6667C7.76326 28.6667 8.75232 28.2667 9.50405 27.5901C9.5127 27.5823 9.52149 27.5747 9.5304 27.5672C9.85433 27.2955 10.1399 26.9579 10.3626 26.5762L10.3752 26.5552C10.7723 25.9111 10.9997 25.1459 10.9997 24.3334C10.9997 21.939 9.06072 20.0001 6.66634 20.0001ZM2.71056 19.3907C3.79832 18.524 5.17545 18.0001 6.66634 18.0001C10.1653 18.0001 12.9997 20.8344 12.9997 24.3334C12.9997 25.5166 12.6694 26.6408 12.0839 27.5946C11.7505 28.1633 11.323 28.6713 10.8291 29.0883C9.71575 30.0847 8.2566 30.6667 6.66634 30.6667C4.35705 30.6667 2.34549 29.4329 1.25098 27.5981C0.66408 26.6436 0.333008 25.5181 0.333008 24.3334C0.333008 22.3411 1.25131 20.549 2.71056 19.3907Z" fill="#A4A4A4"/>
<path fill-rule="evenodd" clip-rule="evenodd" d="M9.48203 22.3471C9.85703 22.7525 9.83233 23.3852 9.42687 23.7602L6.58687 26.3868C6.19255 26.7515 5.58056 26.7396 5.20077 26.3598L3.88078 25.0398C3.49026 24.6493 3.49026 24.0161 3.88078 23.6256C4.27131 23.2351 4.90447 23.2351 5.295 23.6256L5.93494 24.2655L8.06889 22.2919C8.47435 21.9169 9.10704 21.9416 9.48203 22.3471Z" fill="#A4A4A4"/>
</svg>
