<svg width="20" height="18" viewBox="0 0 20 18" fill="none" xmlns="http://www.w3.org/2000/svg">
<path d="M17.8415 5.00252C17.8415 5.18395 17.8415 5.36538 17.8415 5.52089C17.8415 10.8861 13.8915 17.0807 6.6915 17.0807C4.4665 17.0807 2.4165 16.4068 0.666504 15.2663C0.966504 15.2923 1.2915 15.3182 1.5915 15.3182C3.4165 15.3182 5.1165 14.6702 6.4665 13.5816C4.7415 13.5557 3.2915 12.3634 2.8165 10.7565C3.0665 10.8083 3.2915 10.8342 3.5665 10.8342C3.9165 10.8342 4.2665 10.7824 4.5915 10.6787C2.7915 10.3159 1.4415 8.68298 1.4415 6.71316C1.4415 6.68724 1.4415 6.68724 1.4415 6.66132C1.9665 6.97234 2.5665 7.15377 3.2165 7.17969C2.1665 6.45397 1.4665 5.20987 1.4665 3.78433C1.4665 3.03269 1.6665 2.33288 1.9915 1.73675C3.9165 4.19903 6.8165 5.806 10.0665 5.98743C9.9915 5.70232 9.9665 5.36538 9.9665 5.05435C9.9665 2.79942 11.7165 0.985107 13.8915 0.985107C15.0165 0.985107 16.0415 1.47756 16.7415 2.25513C17.6415 2.0737 18.4665 1.73675 19.2415 1.27021C18.9415 2.22921 18.3165 3.00677 17.5165 3.52515C18.3165 3.42147 19.0665 3.21412 19.7665 2.87718C19.2665 3.70658 18.6165 4.4323 17.8415 5.00252Z" fill="#121212" fill-opacity="0.6"/>
</svg>
